<svg width="92.883057" height="14.956787" viewBox="0 0 92.8831 14.9568" fill="none" xmlns="http://www.w3.org/2000/svg" xmlns:xlink="http://www.w3.org/1999/xlink">
	<desc>
			Created with Pixso.
	</desc>
	<defs/>
	<path id="path12" d="M1.07 14.89L1.32 14.36L1.32 0.41L0.04 0.02C-0.05 0 0.02 0 0.06 0C0.98 0 7.51 0.02 7.51 0.02C9.89 0.01 11.87 0.91 13.36 2.25C14.82 3.56 15.83 5.28 15.83 7.47C15.83 9.2 15.22 10.39 14.54 11.42C12.01 15.24 7.2 14.95 7.2 14.95L1.11 14.95C1.08 14.95 1.06 14.91 1.07 14.89ZM64.73 0L64.73 14.95L76.44 14.95L76.44 14.16C73.45 14.16 70.45 14.16 67.45 14.16L67.45 7.7L75.73 7.7L75.73 6.87L67.44 6.87L67.44 0.78C70.44 0.78 73.44 0.78 76.44 0.78L76.44 0.01L64.73 0ZM79.01 14.95L79.01 0L87.05 0C87.84 0 92.32 0.56 92.32 3.64C92.32 6.2 89.76 7.47 87.42 7.47L84.35 7.47C84.35 7.47 84.3 10.1 88.66 10.97C90.01 11.25 91.04 11.62 91.66 12.16C93.05 13.36 92.87 14.95 92.87 14.95L89.05 14.95C88.57 14.11 87.39 12.95 86.51 12.17C85.31 11.1 83.48 9.08 83.48 6.99L86.5 6.99C86.85 6.96 87.94 6.96 88.76 6.03C89.18 5.56 89.37 4.84 89.37 3.77C89.37 0.46 85.78 0.6 85.64 0.6L81.6 0.6L81.6 14.95L79.01 14.95ZM50.69 0L53.47 0L53.47 14.19L62.44 14.19L62.44 14.95L50.69 14.95L50.69 0ZM30.5 14.95L31.36 14.95L34 10.35L43.23 10.35L45.82 14.94L49.05 14.94L40.41 0L37.05 0L38.38 1.19L30.5 14.95ZM34.34 9.75L38.65 2.23L42.89 9.75L34.34 9.75ZM17.57 0L17.57 14.95L29.28 14.95L29.28 14.16C26.29 14.16 23.29 14.16 20.29 14.16L20.29 7.7L28.56 7.7L28.56 6.87L20.28 6.87L20.28 0.78C23.28 0.78 26.28 0.78 29.28 0.78L29.28 0.01L17.57 0ZM4.03 0.34C5.5 0.34 12.86 0 12.86 7.47C12.86 11.91 10.07 14.33 7.08 14.33L4.09 14.33L4.03 0.34Z" fill="#FFFFFF" fill-opacity="1.000000" fill-rule="evenodd"/>
</svg>

